<?xml version="1.0" encoding="iso-8859-1"?>
<!-- Generator: Adobe Illustrator 16.0.0, SVG Export Plug-In . SVG Version: 6.00 Build 0)  -->
<!DOCTYPE svg PUBLIC "-//W3C//DTD SVG 1.1//EN" "http://www.w3.org/Graphics/SVG/1.1/DTD/svg11.dtd">
<svg version="1.1" id="Capa_1" xmlns="http://www.w3.org/2000/svg" xmlns:xlink="http://www.w3.org/1999/xlink" x="0px" y="0px"
	 width="127.378px" height="84.525px" viewBox="0 0 127.378 84.525" style="enable-background:new 0 0 127.378 84.525;"
	 xml:space="preserve">
<g>
	<path d="M48.09,14.848c-0.726-0.118-10.276,24.337-11.167,24.309c0,0-4.878-7.194-10.562-0.979c0,0-5.294-5.937-10.223,0.528
		c0,0-9.057-2.156-10.963,6.144c0,0-6.837,14.488-4.796,26.887l-0.154,4.973l24.489,7.817c0,0-1.43-2.426,3.091-4.281
		c0,0,11.348-6.575,17.701-12.29c0,0,3.513-3.026,0.479-9.891c0,0,0.266-8.285,0.006-11.722c0,0,1.401-6.427,8.338-27.411
		C56.604,9.159,49.512,12.425,48.09,14.848z"/>
	<path d="M122.2,35.849c-1.906-8.3-10.963-6.144-10.963-6.144c-4.928-6.465-10.223-0.528-10.223-0.528
		c-5.684-6.215-10.561,0.979-10.561,0.979C89.563,30.185,80.013,5.729,79.288,5.848c-1.422-2.423-8.515-5.688-6.241,4.083
		c6.937,20.984,8.339,27.411,8.339,27.411c-0.26,3.437,0.006,11.722,0.006,11.722c-3.033,6.864,0.479,9.891,0.479,9.891
		c6.354,5.715,17.701,12.29,17.701,12.29c4.52,1.855,3.09,4.281,3.09,4.281l24.49-7.817l-0.154-4.973
		C129.038,50.337,122.2,35.849,122.2,35.849z"/>
	<path style="fill-rule:evenodd;clip-rule:evenodd;" d="M51.578,7.729c-4.269,0-7.729,3.46-7.729,7.729s3.46,7.729,7.729,7.729
		s7.729-3.46,7.729-7.729S55.847,7.729,51.578,7.729z M51.578,21.586c-3.385,0-6.129-2.745-6.129-6.129
		c0-3.385,2.744-6.128,6.129-6.128c3.384,0,6.129,2.743,6.129,6.128C57.707,18.841,54.962,21.586,51.578,21.586z"/>
	<path style="fill-rule:evenodd;clip-rule:evenodd;" d="M75.781,0c-4.269,0-7.729,3.46-7.729,7.729s3.46,7.729,7.729,7.729
		s7.729-3.46,7.729-7.729S80.05,0,75.781,0z M75.781,13.857c-3.385,0-6.129-2.745-6.129-6.129c0-3.385,2.744-6.128,6.129-6.128
		c3.384,0,6.13,2.743,6.13,6.128C81.911,11.112,79.165,13.857,75.781,13.857z"/>
	<path d="M64.595,22.455c0.129-0.092,0.298-0.094,0.433-0.012c0.129,0.077,0.199,0.235,0.174,0.389l-0.557,3.234
		c2.869,0.52,5.46,2.149,7.156,4.517c0.01,0.014,0.018,0.019,0.026,0.04c0.002,0.004,0.002,0.004,0.002,0.004s0,0,0.002,0.001
		c0.003,0.004,0.004,0.006,0.005,0.008c0.003,0.004,0.003,0.004,0.003,0.004c0.001,0.002,0.001,0.002,0.005,0.007
		c0.002,0.003,0.004,0.005,0.009,0.013c3.547,5.038,2.364,12.045-2.64,15.631c-5.094,3.603-12.111,2.42-15.703-2.591l-0.031-0.044
		l3.296-2.373c2.33,3.251,6.811,4.009,10.026,1.739c3.251-2.33,4.003-6.815,1.73-10.03c-1.123-1.567-2.729-2.582-4.571-2.92
		l-0.547,3.188c0.013,0.133-0.044,0.269-0.16,0.351c-0.174,0.125-0.413,0.085-0.538-0.088c-0.003-0.006-0.007-0.011-0.009-0.015
		l-4.369-6.094c-0.122-0.171-0.084-0.412,0.089-0.537L64.595,22.455z"/>
</g>
<g>
</g>
<g>
</g>
<g>
</g>
<g>
</g>
<g>
</g>
<g>
</g>
<g>
</g>
<g>
</g>
<g>
</g>
<g>
</g>
<g>
</g>
<g>
</g>
<g>
</g>
<g>
</g>
<g>
</g>
</svg>
