<?xml version="1.0" encoding="iso-8859-1"?>
<!-- Generator: Adobe Illustrator 16.0.0, SVG Export Plug-In . SVG Version: 6.00 Build 0)  -->
<!DOCTYPE svg PUBLIC "-//W3C//DTD SVG 1.1//EN" "http://www.w3.org/Graphics/SVG/1.1/DTD/svg11.dtd">
<svg version="1.1" id="Capa_1" xmlns="http://www.w3.org/2000/svg" xmlns:xlink="http://www.w3.org/1999/xlink" x="0px" y="0px"
	 width="76.666px" height="132.417px" viewBox="0 0 76.666 132.417" style="enable-background:new 0 0 76.666 132.417;"
	 xml:space="preserve">
<g>
	<path style="fill-rule:evenodd;clip-rule:evenodd;" d="M24.944,131.979c0,0,3.502-3.063-2.627-8.316
		c0,0-14.383-16.194-21.385-28.449c0,0-3.939-6.565,4.377-15.756c0,0,3.879-13.13,6.066-18.383c0,0,1.135-10.804,1.135-47.304
		c1.5-16.5,10.93-7.704,11.902-3.168c1.199,0.192,3.498,43.488,4.908,43.907c0,0,11.379-8.753,17.068,3.939
		c0,0,11.382-6.565,15.757,6.127c0,0,15.32,1.313,14.006,15.319c0,0,3.211,26.261-6.418,44.643l-2.334,7.878L24.944,131.979z"/>
	<g>
		<path style="fill-rule:evenodd;clip-rule:evenodd;" d="M18.228,0C12.704,0,8.226,4.478,8.226,10.001s4.479,10.002,10.002,10.002
			s10.002-4.478,10.002-10.002S23.751,0,18.228,0z M18.228,17.932c-4.38,0-7.932-3.551-7.932-7.931c0-4.379,3.552-7.93,7.932-7.93
			s7.932,3.551,7.932,7.93C26.159,14.381,22.607,17.932,18.228,17.932z"/>
	</g>
</g>
<g>
</g>
<g>
</g>
<g>
</g>
<g>
</g>
<g>
</g>
<g>
</g>
<g>
</g>
<g>
</g>
<g>
</g>
<g>
</g>
<g>
</g>
<g>
</g>
<g>
</g>
<g>
</g>
<g>
</g>
</svg>
