<svg xmlns="http://www.w3.org/2000/svg" width="76.666" height="132.417" viewBox="0 0 76.666 132.417"><path d="M24.944 131.979s3.502-3.063-2.627-8.316c0 0-14.383-16.194-21.385-28.449 0 0-3.939-6.565 4.377-15.756 0 0 3.879-13.13 6.066-18.383 0 0 1.135-10.804 1.135-47.304 1.5-16.5 10.93-7.704 11.902-3.168 1.199.192 3.498 43.488 4.908 43.907 0 0 11.379-8.753 17.068 3.939 0 0 11.382-6.565 15.757 6.127 0 0 15.32 1.313 14.006 15.319 0 0 3.211 26.261-6.418 44.643l-2.334 7.878-42.455-.437zM18.228 0c-5.524 0-10.002 4.478-10.002 10.001s4.479 10.002 10.002 10.002 10.002-4.478 10.002-10.002-4.479-10.001-10.002-10.001zm0 17.932c-4.38 0-7.932-3.551-7.932-7.931 0-4.379 3.552-7.93 7.932-7.93s7.932 3.551 7.932 7.93c-.001 4.38-3.553 7.931-7.932 7.931z" fill-rule="evenodd" clip-rule="evenodd"/></svg>