<svg xmlns="http://www.w3.org/2000/svg" width="113.121" height="153.586" viewBox="0 0 113.121 153.586"><path d="M59.651 153.148s3.502-3.064-2.626-8.316c0 0-16.052-10.449-25.719-22.115-2.5-4-9.9-11.911-10.567-17.911l-6.53-18.708s-1.721-8.454 6.822-8.657c8.078 2.896 16.652 23.187 16.652 23.187s6.212 4.62 7.4-.8c0 0 1.889-7.254-.654-19.498-2.735-13.176-5.625-23.703-8.377-41.389-.5-11.834 10.928-7.704 11.901-3.168 1.198.191 12.716 45.371 16.241 44.323 2.379-.707-13.366-55.306-8.785-57.874 2.507-5.41 11.147-4.162 11.998-.316.963 4.349 16.359 61.775 17.606 57.713 1.477-4.812-6.505-45.106-4.551-47.443 4.207-5.031 11.188-3.654 11.774 3.15.141 1.629 5.365 52.42 8.366 49.42 3.527-3.526-.13-19.95 1.457-32.007.923-7.009 8.783-3.465 8.781 2.231-.004 10.054 2.472 43.906 2.267 46.095 0 0-.04 20.261-7.669 44.643l-2.334 7.879-43.453-.439z" fill-rule="evenodd" clip-rule="evenodd"/><path d="M13.697 69.321l.953-8.431s.124-.604-.468-.682c-.815-.103-8.459-.947-8.459-.947s-1.035-.134-.436.642l1.564 2.014-.851.658c-1.593 1.231-4.687 3.63-5.872 4.549 0 0-.283.208-.006.567.279.36 3.44 4.441 3.834 4.944.387.504.648.16.648.16 1.219-.944 4.213-3.265 5.861-4.538l.946-.738 1.692 2.181c.493.639.594-.379.594-.379zM52.067.4l-4.724 7.049s-.388.479.102.82c.677.464 7.075 4.731 7.075 4.731s.856.595.682-.368l-.463-2.508 1.06-.193c1.981-.36 5.831-1.066 7.306-1.337 0 0 .348-.054.266-.502-.082-.447-1.01-5.525-1.128-6.153-.111-.626-.502-.441-.502-.441-1.517.279-5.244.963-7.291 1.333l-1.181.223-.498-2.717c-.145-.792-.704.063-.704.063z"/><path d="M18.726 71.51c-6.293 0-11.395 5.102-11.395 11.395s5.102 11.395 11.395 11.395 11.394-5.103 11.394-11.396-5.101-11.394-11.394-11.394zm0 20.429c-4.99 0-9.035-4.046-9.035-9.035 0-4.99 4.045-9.035 9.035-9.035 4.989 0 9.035 4.045 9.035 9.035s-4.046 9.035-9.035 9.035zM41.515 25.89c-6.293 0-11.395 5.102-11.395 11.395s5.102 11.395 11.395 11.395 11.395-5.102 11.395-11.395-5.102-11.395-11.395-11.395zm0 20.429c-4.99 0-9.035-4.046-9.035-9.035 0-4.99 4.045-9.035 9.035-9.035 4.989 0 9.035 4.045 9.035 9.035 0 4.989-4.046 9.035-9.035 9.035zM61.635 13.884c-6.293 0-11.395 5.102-11.395 11.395s5.102 11.395 11.395 11.395 11.395-5.103 11.395-11.396-5.102-11.394-11.395-11.394zm0 20.429c-4.99 0-9.035-4.046-9.035-9.035 0-4.99 4.045-9.035 9.035-9.035 4.989 0 9.035 4.045 9.035 9.035s-4.045 9.035-9.035 9.035zM85.575 23.889c-6.293 0-11.395 5.102-11.395 11.395s5.102 11.395 11.395 11.395 11.395-5.102 11.395-11.395-5.102-11.395-11.395-11.395zm0 20.429c-4.99 0-9.035-4.046-9.035-9.035 0-4.99 4.045-9.035 9.035-9.035 4.989 0 9.035 4.045 9.035 9.035 0 4.989-4.046 9.035-9.035 9.035z" fill-rule="evenodd" clip-rule="evenodd"/></svg>