<svg xmlns="http://www.w3.org/2000/svg" width="137.021" height="103.157" viewBox="0 0 137.021 103.157"><path d="M59.308 7.731c0-4.269-3.461-7.729-7.729-7.729-4.27 0-7.729 3.46-7.729 7.729 0 1.781.608 3.416 1.62 4.724-3.115 7.161-7.928 18.995-8.547 18.976 0 0-4.879-7.194-10.562-.979 0 0-5.293-5.937-10.223.528 0 0-9.057-2.156-10.963 6.144 0 0-6.836 14.488-4.795 26.887l-.154 4.973 24.489 7.816s-1.43-2.426 3.092-4.281c0 0 11.348-6.575 17.7-12.29 0 0 3.514-3.026.48-9.891 0 0 .266-8.285.006-11.722 0 0 1.217-5.579 6.985-23.289 3.599-.659 6.33-3.806 6.33-7.596zm-13.858 0c0-3.385 2.744-6.128 6.129-6.128 3.383 0 6.129 2.743 6.129 6.128 0 2.687-1.733 4.965-4.14 5.792l.763-2.318c2.273-9.771-4.818-6.506-6.24-4.083-.178-.029-.883 1.413-1.858 3.601-.497-.886-.783-1.905-.783-2.992zM131.403 63.101c-2.07-8.261-11.082-5.925-11.082-5.925-5.058-6.366-10.231-.325-10.231-.325-5.806-6.101-10.541 1.188-10.541 1.188-.598.031-5.312-10.885-8.568-18.028.773-1.232 1.212-2.694 1.181-4.257-.084-4.268-3.613-7.658-7.88-7.574-4.269.085-7.658 3.613-7.573 7.881.078 3.946 3.102 7.137 6.933 7.529 5.724 16.545 6.984 21.813 6.984 21.813-.191 3.44.238 11.72.238 11.72-2.896 6.923.675 9.879.675 9.879 6.466 5.588 17.941 11.936 17.941 11.936 4.558 1.766 3.177 4.22 3.177 4.22l24.328-8.302-.253-4.969c1.793-12.437-5.329-26.786-5.329-26.786zm-53.096-27.072c-.067-3.385 2.622-6.182 6.006-6.249 3.383-.067 6.183 2.621 6.25 6.005.017.841-.138 1.646-.431 2.381-1.173-2.524-2.036-4.244-2.229-4.209-1.47-2.395-8.625-5.519-6.158 4.206.456 1.291.888 2.524 1.3 3.706-2.668-.619-4.682-2.978-4.738-5.84z" fill-rule="evenodd" clip-rule="evenodd"/><path d="M66.769.08l10.993 3.848s1.331.443.325.909c-1.004.47-3.435 1.6-3.435 1.6l.699 1.491c1.201 2.594 3.395 7.311 4.286 9.229 0 0 .381.454-.412.819-.793.373-7.22 3.358-7.787 3.623-.566.261-.758-.182-.758-.182-.869-1.865-3.135-6.738-4.297-9.248l-.62-1.34s-1.95.911-3.173 1.479c-1.221.566-.726-.778-.726-.778s3.462-9.973 3.849-11.033c.286-.768 1.056-.417 1.056-.417zM68.8 47.65l-10.784-4.4s-1.307-.511-.278-.925c1.025-.418 3.511-1.424 3.511-1.424l-.622-1.524c-1.069-2.651-3.021-7.473-3.813-9.436 0 0-.358-.473.453-.797.811-.332 7.38-2.988 7.961-3.224.578-.231.747.22.747.22.773 1.908 2.789 6.889 3.822 9.453l.552 1.37s1.994-.812 3.244-1.315c1.248-.504.686.814.686.814s-3.964 9.784-4.403 10.824c-.325.753-1.076.364-1.076.364z"/></svg>