<?xml version="1.0" encoding="iso-8859-1"?>
<!-- Generator: Adobe Illustrator 16.0.0, SVG Export Plug-In . SVG Version: 6.00 Build 0)  -->
<!DOCTYPE svg PUBLIC "-//W3C//DTD SVG 1.1//EN" "http://www.w3.org/Graphics/SVG/1.1/DTD/svg11.dtd">
<svg version="1.1" id="Capa_1" xmlns="http://www.w3.org/2000/svg" xmlns:xlink="http://www.w3.org/1999/xlink" x="0px" y="0px"
	 width="113.121px" height="153.586px" viewBox="0 0 113.121 153.586" style="enable-background:new 0 0 113.121 153.586;"
	 xml:space="preserve">
<g>
	<path style="fill-rule:evenodd;clip-rule:evenodd;" d="M59.651,153.148c0,0,3.502-3.064-2.626-8.316
		c0,0-16.052-10.449-25.719-22.115c-2.5-4-9.9-11.911-10.567-17.911s-6.53-18.708-6.53-18.708s-1.721-8.454,6.822-8.657
		c8.078,2.896,16.652,23.187,16.652,23.187s6.212,4.62,7.4-0.8c0,0,1.889-7.254-0.654-19.498
		c-2.735-13.176-5.625-23.703-8.377-41.389c-0.5-11.834,10.928-7.704,11.901-3.168c1.198,0.191,12.716,45.371,16.241,44.323
		c2.379-0.707-13.366-55.306-8.785-57.874c2.507-5.41,11.147-4.162,11.998-0.316c0.963,4.349,16.359,61.775,17.606,57.713
		c1.477-4.812-6.505-45.106-4.551-47.443c4.207-5.031,11.188-3.654,11.774,3.15c0.141,1.629,5.365,52.42,8.366,49.42
		c3.527-3.526-0.13-19.95,1.457-32.007c0.923-7.009,8.783-3.465,8.781,2.231c-0.004,10.054,2.472,43.906,2.267,46.095
		c0,0-0.04,20.261-7.669,44.643l-2.334,7.879L59.651,153.148z"/>
	<g>
		<path d="M13.697,69.321l0.953-8.431c0,0,0.124-0.604-0.468-0.682c-0.815-0.103-8.459-0.947-8.459-0.947s-1.035-0.134-0.436,0.642
			c0.602,0.776,1.564,2.014,1.564,2.014S6.511,62.178,6,62.575c-1.593,1.231-4.687,3.63-5.872,4.549c0,0-0.283,0.208-0.006,0.567
			c0.279,0.36,3.44,4.441,3.834,4.944c0.387,0.504,0.648,0.16,0.648,0.16c1.219-0.944,4.213-3.265,5.861-4.538
			c0.573-0.447,0.946-0.738,0.946-0.738s1.196,1.543,1.692,2.181C13.596,70.339,13.697,69.321,13.697,69.321z"/>
	</g>
	<g>
		<path d="M52.067,0.4l-4.724,7.049c0,0-0.388,0.479,0.102,0.82c0.677,0.464,7.075,4.731,7.075,4.731s0.856,0.595,0.682-0.368
			c-0.177-0.967-0.463-2.508-0.463-2.508s0.423-0.075,1.06-0.193c1.981-0.36,5.831-1.066,7.306-1.337c0,0,0.348-0.054,0.266-0.502
			c-0.082-0.447-1.01-5.525-1.128-6.153c-0.111-0.626-0.502-0.441-0.502-0.441c-1.517,0.279-5.244,0.963-7.291,1.333
			c-0.716,0.135-1.181,0.223-1.181,0.223s-0.351-1.921-0.498-2.717C52.626-0.455,52.067,0.4,52.067,0.4z"/>
	</g>
	<path style="fill-rule:evenodd;clip-rule:evenodd;" d="M18.726,71.51c-6.293,0-11.395,5.102-11.395,11.395
		s5.102,11.395,11.395,11.395S30.12,89.197,30.12,82.904S25.019,71.51,18.726,71.51z M18.726,91.939
		c-4.99,0-9.035-4.046-9.035-9.035c0-4.99,4.045-9.035,9.035-9.035c4.989,0,9.035,4.045,9.035,9.035
		C27.761,87.894,23.715,91.939,18.726,91.939z"/>
	<path style="fill-rule:evenodd;clip-rule:evenodd;" d="M41.515,25.89c-6.293,0-11.395,5.102-11.395,11.395
		s5.102,11.395,11.395,11.395s11.395-5.102,11.395-11.395S47.808,25.89,41.515,25.89z M41.515,46.319
		c-4.99,0-9.035-4.046-9.035-9.035c0-4.99,4.045-9.035,9.035-9.035c4.989,0,9.035,4.045,9.035,9.035
		C50.55,42.273,46.504,46.319,41.515,46.319z"/>
	<path style="fill-rule:evenodd;clip-rule:evenodd;" d="M61.635,13.884c-6.293,0-11.395,5.102-11.395,11.395
		s5.102,11.395,11.395,11.395S73.03,31.571,73.03,25.278S67.928,13.884,61.635,13.884z M61.635,34.313
		c-4.99,0-9.035-4.046-9.035-9.035c0-4.99,4.045-9.035,9.035-9.035c4.989,0,9.035,4.045,9.035,9.035
		C70.67,30.268,66.625,34.313,61.635,34.313z"/>
	<path style="fill-rule:evenodd;clip-rule:evenodd;" d="M85.575,23.889c-6.293,0-11.395,5.102-11.395,11.395
		s5.102,11.395,11.395,11.395s11.395-5.102,11.395-11.395S91.868,23.889,85.575,23.889z M85.575,44.318
		c-4.99,0-9.035-4.046-9.035-9.035c0-4.99,4.045-9.035,9.035-9.035c4.989,0,9.035,4.045,9.035,9.035
		C94.61,40.272,90.564,44.318,85.575,44.318z"/>
</g>
<g>
</g>
<g>
</g>
<g>
</g>
<g>
</g>
<g>
</g>
<g>
</g>
<g>
</g>
<g>
</g>
<g>
</g>
<g>
</g>
<g>
</g>
<g>
</g>
<g>
</g>
<g>
</g>
<g>
</g>
</svg>
