<svg xmlns="http://www.w3.org/2000/svg" width="127.378" height="84.525" viewBox="0 0 127.378 84.525"><path d="M48.09 14.848c-.726-.118-10.276 24.337-11.167 24.309 0 0-4.878-7.194-10.562-.979 0 0-5.294-5.937-10.223.528 0 0-9.057-2.156-10.963 6.144 0 0-6.837 14.488-4.796 26.887l-.154 4.973 24.489 7.817s-1.43-2.426 3.091-4.281c0 0 11.348-6.575 17.701-12.29 0 0 3.513-3.026.479-9.891 0 0 .266-8.285.006-11.722 0 0 1.401-6.427 8.338-27.411 2.275-9.773-4.817-6.507-6.239-4.084zM122.2 35.849c-1.906-8.3-10.963-6.144-10.963-6.144-4.928-6.465-10.223-.528-10.223-.528-5.684-6.215-10.561.979-10.561.979-.89.029-10.44-24.427-11.165-24.308-1.422-2.423-8.515-5.688-6.241 4.083 6.937 20.984 8.339 27.411 8.339 27.411-.26 3.437.006 11.722.006 11.722-3.033 6.864.479 9.891.479 9.891 6.354 5.715 17.701 12.29 17.701 12.29 4.52 1.855 3.09 4.281 3.09 4.281l24.49-7.817-.154-4.973c2.04-12.399-4.798-26.887-4.798-26.887z"/><path d="M51.578 7.729c-4.269 0-7.729 3.46-7.729 7.729s3.46 7.729 7.729 7.729 7.729-3.46 7.729-7.729-3.46-7.729-7.729-7.729zm0 13.857c-3.385 0-6.129-2.745-6.129-6.129 0-3.385 2.744-6.128 6.129-6.128 3.384 0 6.129 2.743 6.129 6.128 0 3.384-2.745 6.129-6.129 6.129zM75.781 0c-4.269 0-7.729 3.46-7.729 7.729s3.46 7.729 7.729 7.729 7.729-3.46 7.729-7.729-3.46-7.729-7.729-7.729zm0 13.857c-3.385 0-6.129-2.745-6.129-6.129 0-3.385 2.744-6.128 6.129-6.128 3.384 0 6.13 2.743 6.13 6.128 0 3.384-2.746 6.129-6.13 6.129z" fill-rule="evenodd" clip-rule="evenodd"/><path d="M64.595 22.455c.129-.092.298-.094.433-.012.129.077.199.235.174.389l-.557 3.234c2.869.52 5.46 2.149 7.156 4.517l.026.04.002.004.002.001.005.008.003.004.005.007.009.013c3.547 5.038 2.364 12.045-2.64 15.631-5.094 3.603-12.111 2.42-15.703-2.591l-.031-.044 3.296-2.373c2.33 3.251 6.811 4.009 10.026 1.739 3.251-2.33 4.003-6.815 1.73-10.03-1.123-1.567-2.729-2.582-4.571-2.92l-.547 3.188c.013.133-.044.269-.16.351-.174.125-.413.085-.538-.088l-.009-.015-4.369-6.094c-.122-.171-.084-.412.089-.537l6.169-4.422z"/></svg>