<?xml version="1.0" encoding="iso-8859-1"?>
<!-- Generator: Adobe Illustrator 16.0.0, SVG Export Plug-In . SVG Version: 6.00 Build 0)  -->
<!DOCTYPE svg PUBLIC "-//W3C//DTD SVG 1.1//EN" "http://www.w3.org/Graphics/SVG/1.1/DTD/svg11.dtd">
<svg version="1.1" id="Capa_1" xmlns="http://www.w3.org/2000/svg" xmlns:xlink="http://www.w3.org/1999/xlink" x="0px" y="0px"
	 width="137.021px" height="103.157px" viewBox="0 0 137.021 103.157" style="enable-background:new 0 0 137.021 103.157;"
	 xml:space="preserve">
<g>
	<path style="fill-rule:evenodd;clip-rule:evenodd;" d="M59.308,7.731c0-4.269-3.461-7.729-7.729-7.729
		c-4.27,0-7.729,3.46-7.729,7.729c0,1.781,0.608,3.416,1.62,4.724c-3.115,7.161-7.928,18.995-8.547,18.976
		c0,0-4.879-7.194-10.562-0.979c0,0-5.293-5.937-10.223,0.528c0,0-9.057-2.156-10.963,6.144c0,0-6.836,14.488-4.795,26.887
		l-0.154,4.973L24.715,76.8c0,0-1.43-2.426,3.092-4.281c0,0,11.348-6.575,17.7-12.29c0,0,3.514-3.026,0.48-9.891
		c0,0,0.266-8.285,0.006-11.722c0,0,1.217-5.579,6.985-23.289C56.577,14.668,59.308,11.521,59.308,7.731z M45.45,7.731
		c0-3.385,2.744-6.128,6.129-6.128c3.383,0,6.129,2.743,6.129,6.128c0,2.687-1.733,4.965-4.14,5.792
		c0.247-0.755,0.5-1.522,0.763-2.318c2.273-9.771-4.818-6.506-6.24-4.083c-0.178-0.029-0.883,1.413-1.858,3.601
		C45.736,9.837,45.45,8.818,45.45,7.731z"/>
	<path style="fill-rule:evenodd;clip-rule:evenodd;" d="M131.403,63.101c-2.07-8.261-11.082-5.925-11.082-5.925
		c-5.058-6.366-10.231-0.325-10.231-0.325c-5.806-6.101-10.541,1.188-10.541,1.188c-0.598,0.031-5.312-10.885-8.568-18.028
		c0.773-1.232,1.212-2.694,1.181-4.257c-0.084-4.268-3.613-7.658-7.88-7.574c-4.269,0.085-7.658,3.613-7.573,7.881
		c0.078,3.946,3.102,7.137,6.933,7.529c5.724,16.545,6.984,21.813,6.984,21.813c-0.191,3.44,0.238,11.72,0.238,11.72
		c-2.896,6.923,0.675,9.879,0.675,9.879c6.466,5.588,17.941,11.936,17.941,11.936c4.558,1.766,3.177,4.22,3.177,4.22l24.328-8.302
		l-0.253-4.969C138.525,77.45,131.403,63.101,131.403,63.101z M78.307,36.029c-0.067-3.385,2.622-6.182,6.006-6.249
		c3.383-0.067,6.183,2.621,6.25,6.005c0.017,0.841-0.138,1.646-0.431,2.381c-1.173-2.524-2.036-4.244-2.229-4.209
		c-1.47-2.395-8.625-5.519-6.158,4.206c0.456,1.291,0.888,2.524,1.3,3.706C80.377,41.25,78.363,38.891,78.307,36.029z"/>
	<path d="M66.769,0.08l10.993,3.848c0,0,1.331,0.443,0.325,0.909c-1.004,0.47-3.435,1.6-3.435,1.6s0.274,0.588,0.699,1.491
		c1.201,2.594,3.395,7.311,4.286,9.229c0,0,0.381,0.454-0.412,0.819c-0.793,0.373-7.22,3.358-7.787,3.623
		c-0.566,0.261-0.758-0.182-0.758-0.182c-0.869-1.865-3.135-6.738-4.297-9.248c-0.375-0.804-0.62-1.34-0.62-1.34
		s-1.95,0.911-3.173,1.479c-1.221,0.566-0.726-0.778-0.726-0.778s3.462-9.973,3.849-11.033C65.999-0.271,66.769,0.08,66.769,0.08z"
		/>
	<path d="M68.8,47.65l-10.784-4.4c0,0-1.307-0.511-0.278-0.925c1.025-0.418,3.511-1.424,3.511-1.424s-0.244-0.601-0.622-1.524
		c-1.069-2.651-3.021-7.473-3.813-9.436c0,0-0.358-0.473,0.453-0.797c0.811-0.332,7.38-2.988,7.961-3.224
		c0.578-0.231,0.747,0.22,0.747,0.22c0.773,1.908,2.789,6.889,3.822,9.453c0.335,0.823,0.552,1.37,0.552,1.37
		s1.994-0.812,3.244-1.315c1.248-0.504,0.686,0.814,0.686,0.814s-3.964,9.784-4.403,10.824C69.551,48.039,68.8,47.65,68.8,47.65z"/>
</g>
<g>
</g>
<g>
</g>
<g>
</g>
<g>
</g>
<g>
</g>
<g>
</g>
<g>
</g>
<g>
</g>
<g>
</g>
<g>
</g>
<g>
</g>
<g>
</g>
<g>
</g>
<g>
</g>
<g>
</g>
</svg>
