<svg xmlns="http://www.w3.org/2000/svg" width="500" height="500" viewBox="0 0 500 500"><path d="M442.328 211.514h-43.53c3.17 12.312 5.043 25.18 5.043 38.474 0 84.978-68.872 153.85-153.835 153.85s-153.84-68.872-153.84-153.85c0-13.295 1.88-26.162 5.052-38.474H57.69V423.07c0 10.603 8.61 19.213 19.244 19.213H423.07c10.647 0 19.262-8.602 19.262-19.214V211.513h-.004zm0-134.605c0-10.612-8.614-19.225-19.253-19.225h-57.678c-10.625 0-19.235 8.612-19.235 19.23v57.706c0 10.614 8.606 19.23 19.235 19.23h57.678c10.64 0 19.253-8.615 19.253-19.23V76.906v.004zM250 153.843c-53.11 0-96.156 43.043-96.156 96.147 0 53.097 43.047 96.164 96.157 96.164 53.107 0 96.162-43.067 96.162-96.16 0-53.107-43.055-96.15-96.16-96.15M442.327 500H57.683C25.835 500 0 474.16 0 442.283V57.68C0 25.825 25.83 0 57.683 0h384.645c31.856 0 57.678 25.824 57.678 57.68v384.603c0 31.878-25.82 57.712-57.678 57.712"/></svg>