<svg xmlns="http://www.w3.org/2000/svg" width="500" height="500" viewBox="0 0 500 500"><path d="M500 94.91c-18.387 8.155-38.178 13.672-58.898 16.15 21.148-12.702 37.414-32.813 45.09-56.746-19.853 11.75-41.795 20.31-65.17 24.887-18.678-19.92-45.335-32.355-74.814-32.355-56.687 0-102.6 45.937-102.6 102.577 0 8.05.907 15.877 2.662 23.377-85.25-4.297-160.85-45.16-211.442-107.187C26 80.763 20.92 98.358 20.92 117.173c0 35.59 18.127 66.985 45.662 85.388-16.815-.525-32.63-5.156-46.47-12.81v1.282c0 49.69 35.338 91.164 82.26 100.58-8.592 2.333-17.655 3.584-27.032 3.584-6.592 0-13.016-.61-19.28-1.83 13.048 40.74 50.942 70.403 95.834 71.243-35.126 27.51-79.376 43.898-127.426 43.898-8.278 0-16.434-.488-24.468-1.435 45.372 29.1 99.297 46.08 157.234 46.08 188.683 0 291.878-156.31 291.878-291.868 0-4.456-.107-8.88-.32-13.283 20.05-14.442 37.46-32.5 51.208-53.078v-.014z"/></svg>