<?xml version="1.0" encoding="utf-8"?>
<!-- Generated by IcoMoon.io -->
<!DOCTYPE svg PUBLIC "-//W3C//DTD SVG 1.1//EN" "http://www.w3.org/Graphics/SVG/1.1/DTD/svg11.dtd">
<svg version="1.1" xmlns="http://www.w3.org/2000/svg" xmlns:xlink="http://www.w3.org/1999/xlink" width="32" height="32" viewBox="0 0 32 32">
<path d="M16 0c-8.837 0-16 7.163-16 16 0 6.778 4.217 12.568 10.169 14.899-0.14-1.266-0.266-3.208 0.055-4.59 0.291-1.249 1.876-7.953 1.876-7.953s-0.479-0.958-0.479-2.375c0-2.225 1.29-3.886 2.895-3.886 1.365 0 2.024 1.025 2.024 2.254 0 1.373-0.874 3.425-1.325 5.327-0.377 1.593 0.799 2.892 2.369 2.892 2.844 0 5.030-2.999 5.030-7.327 0-3.831-2.753-6.509-6.683-6.509-4.552 0-7.225 3.415-7.225 6.943 0 1.375 0.53 2.85 1.191 3.651 0.131 0.158 0.15 0.297 0.111 0.459-0.121 0.506-0.391 1.593-0.444 1.815-0.070 0.293-0.232 0.355-0.535 0.214-1.998-0.93-3.248-3.852-3.248-6.198 0-5.047 3.667-9.682 10.572-9.682 5.55 0 9.864 3.955 9.864 9.241 0 5.514-3.477 9.952-8.302 9.952-1.621 0-3.145-0.842-3.667-1.837 0 0-0.802 3.055-0.997 3.803-0.361 1.39-1.337 3.132-1.989 4.195 1.497 0.463 3.088 0.713 4.738 0.713 8.836-0 16-7.163 16-16s-7.163-16-16-16z" fill="#444444"></path>
</svg>
