<svg xmlns="http://www.w3.org/2000/svg" width="500" height="500" viewBox="0 0 500 500"><path d="M420.78 215.825h-38.653c2.816 10.932 4.479 22.358 4.479 34.165 0 75.458-61.158 136.617-136.604 136.617S113.395 325.448 113.395 249.99c0-11.807 1.67-23.233 4.486-34.165h-38.65v187.86c0 9.415 7.645 17.061 17.087 17.061h307.363c9.454 0 17.103-7.638 17.103-17.061v-187.86h-.004zm0-119.531c0-9.423-7.648-17.07-17.095-17.07h-51.218c-9.435 0-17.079 7.647-17.079 17.075v51.243c0 9.425 7.641 17.075 17.079 17.075h51.218c9.446 0 17.095-7.65 17.095-17.075v-51.25.002zm-170.782 68.32c-47.161 0-85.387 38.222-85.387 85.38 0 47.148 38.226 85.392 85.387 85.392 47.157 0 85.391-38.243 85.391-85.39 0-47.16-38.234-85.382-85.391-85.382M420.78 472H79.224C50.943 472 28 449.055 28 420.746V79.22C28 50.931 50.938 28 79.224 28H420.78C449.07 28 472 50.931 472 79.22v341.526C472 449.055 449.07 472 420.78 472"/></svg>