<svg xmlns="http://www.w3.org/2000/svg" width="500" height="500" viewBox="0 0 500 500"><path d="M485 104.217c-17.289 7.664-35.885 12.852-55.371 15.181 19.891-11.94 35.176-30.842 42.395-53.339-18.666 11.044-39.292 19.09-61.269 23.395-17.552-18.728-42.615-30.418-70.322-30.418-53.282 0-96.441 43.179-96.441 96.421 0 7.566.855 14.924 2.505 21.976-80.137-4.042-151.203-42.45-198.756-100.755-8.304 14.242-13.074 30.779-13.074 48.464 0 33.457 17.039 62.964 42.922 80.267-15.808-.494-30.676-4.847-43.687-12.046v1.211c0 46.705 33.221 85.691 77.325 94.536a96.558 96.558 0 0 1-25.403 3.381 94.9 94.9 0 0 1-18.123-1.726c12.26 38.291 47.88 66.179 90.079 66.971-33.02 25.855-74.613 41.269-119.782 41.269A196.1 196.1 0 0 1 15 397.654c42.65 27.344 93.34 43.311 147.799 43.311 177.355 0 274.369-146.93 274.369-274.353 0-4.193-.097-8.353-.307-12.491 18.847-13.575 35.219-30.55 48.139-49.89v-.014z"/></svg>