<svg id="Layer_1" data-name="Layer 1" xmlns="http://www.w3.org/2000/svg" viewBox="0 0 701 179.6">
  <defs>
    <style>
      .cls-1 {
        fill: #2aa9e0;
      }
    </style>
  </defs>
  <title>logo</title>
  <g>
    <path class="cls-1" d="M328.3,33.6H298.9V88.8c0,16.1-6.9,29.1-23,29.1s-23.1-13-23.1-29.1V33.7H223.4V88.8c0,31.8,20.5,57.6,52.3,57.6s52.6-25.8,52.6-57.6Z"/>
    <rect class="cls-1" x="594" y="0.1" width="29.3" height="143.49"/>
    <g>
      <path class="cls-1" d="M644.9,5.4V.2h22.8V5.4h-8.4V28.1h-6.1V5.4Z"/>
      <path class="cls-1" d="M679.6.2l6.5,19.2h.1L692.4.2H701V28.1h-5.7V8.3h-.1l-6.8,19.8h-4.7L676.8,8.5h-.1V28.1H671V.2Z"/>
    </g>
    <path class="cls-1" d="M199.5,32.4c-25.3-5.8-41.2,19.3-41.9,20.6s-.3,1-1.5,1-1-1-1-1L152,33.9H125.7V143.5h29.4V84.1c0-4.8,13.1-28.1,38.3-22.1,12.8,3,18.2,8.5,18.2,8.5V37.1A46.9,46.9,0,0,0,199.5,32.4Z"/>
    <path class="cls-1" d="M368.3,179.6V140.1h0V125.4s0-1.2,1.1-1.2,1.2.6,1.4,1.2c2.2,5.6,14.5,26.7,41.7,20.1a58,58,0,1,0-73.8-55.9v90ZM396.8,60.2a29.4,29.4,0,1,1-29.4,29.4A29.4,29.4,0,0,1,396.8,60.2Z"/>
    <path class="cls-1" d="M552.5,143.5h29.5V89.6a58,58,0,1,0-73.8,55.9c27.2,6.6,39.5-14.5,41.7-20.1.2-.6.4-1.2,1.4-1.2s1.1,1.2,1.1,1.2m.9-35.8A29.4,29.4,0,1,1,524,60.2,29.4,29.4,0,0,1,553.4,89.6Z"/>
    <path class="cls-1" d="M33.5,143.3H0V0H35.9c43.5,0,76.5,8,76.5,71.6S77.5,143.3,33.5,143.3Zm8-118.4H29.6v93.6l12.2.3c24.9,0,41-2.3,41-47.1C82.8,28.7,68.6,24.8,41.5,24.8Z"/>
  </g>
</svg>
