<?xml version="1.0" encoding="UTF-8"?><!DOCTYPE svg PUBLIC "-//W3C//DTD SVG 1.1//EN" "http://www.w3.org/Graphics/SVG/1.1/DTD/svg11.dtd"><svg xmlns="http://www.w3.org/2000/svg"><symbol id="facebook" viewBox="0 0 32 32"><path d="M26.667 0H5.333C2.388 0 0 2.388 0 5.334v21.332C0 29.612 2.387 32 5.333 32H16V18h-4v-4h4v-3c0-2.76 2.24-5 5-5h5v4h-5c-.552 0-1 .448-1 1v3h5.5l-1 4H20v14h6.667C29.612 32 32 29.612 32 26.666V5.334C32 2.388 29.613 0 26.667 0z"/></symbol><symbol id="instagram" viewBox="0 0 113.386 113.386"><path d="M100.136 47.884h-9.854c.718 2.787 1.142 5.7 1.142 8.71 0 19.238-15.592 34.83-34.827 34.83-19.234 0-34.827-15.592-34.827-34.83 0-3.01.426-5.923 1.144-8.71H13.06v47.893c0 2.4 1.95 4.35 4.357 4.35h78.36c2.41 0 4.36-1.948 4.36-4.35V47.884zm0-30.473c0-2.4-1.95-4.35-4.358-4.35H82.72c-2.405 0-4.354 1.95-4.354 4.352v13.064c0 2.403 1.948 4.353 4.354 4.353h13.058c2.408 0 4.358-1.95 4.358-4.354V17.41zM56.596 34.83c-12.023 0-21.768 9.744-21.768 21.767 0 12.02 9.745 21.77 21.768 21.77s21.77-9.75 21.77-21.77c0-12.023-9.747-21.767-21.77-21.767m43.54 78.365H13.058c-7.21 0-13.058-5.85-13.058-13.066v-87.07C0 5.848 5.847 0 13.058 0h87.078c7.212 0 13.058 5.846 13.058 13.058v87.068c0 7.217-5.846 13.066-13.058 13.066"/></symbol><symbol id="twitter" viewBox="0 0 32 32"><path d="M32 6.076c-1.177.522-2.443.875-3.77 1.034 1.354-.813 2.395-2.1 2.886-3.632-1.27.752-2.674 1.3-4.17 1.593C25.75 3.797 24.044 3 22.156 3c-3.626 0-6.565 2.94-6.565 6.565 0 .515.06 1.016.17 1.496-5.455-.274-10.293-2.89-13.53-6.86-.566.97-.89 2.097-.89 3.3 0 2.28 1.16 4.288 2.92 5.466-1.075-.034-2.087-.33-2.973-.82v.082c0 3.18 2.262 5.834 5.265 6.437-.55.15-1.13.23-1.73.23-.422 0-.833-.04-1.234-.118.835 2.608 3.26 4.506 6.133 4.56-2.247 1.76-5.08 2.81-8.154 2.81-.53 0-1.052-.032-1.566-.093 2.904 1.863 6.355 2.95 10.063 2.95 12.076 0 18.68-10.004 18.68-18.68 0-.285-.007-.568-.02-.85C30.006 8.55 31.12 7.394 32 6.077z"/></symbol><symbol id="viget" viewBox="0 0 500 181.079"><path d="M77.144 90.693c0 21.3-17.264 38.58-38.563 38.58-21.313 0-38.58-17.28-38.58-38.58 0-21.32 17.267-38.59 38.58-38.59 21.3 0 38.565 17.272 38.565 38.59"/><path fill="currentColor" d="M114.678 48.59c0 11.165-9.037 20.196-20.187 20.196-11.14 0-20.18-9.032-20.18-20.196 0-11.15 9.04-20.2 20.18-20.2 11.15 0 20.19 9.05 20.19 20.2"/><path fill="#092f40" d="M246.277 52.125h-6.374c-1.774 0-3.372 1.595-3.372 3.376v70.323c0 1.774 1.6 3.372 3.374 3.372h6.374c1.776 0 3.376-1.598 3.376-3.372v-70.32c0-1.78-1.6-3.377-3.376-3.377zm133.89-.027c-22.028.242-36.653 17.99-36.653 38.656 0 21.167 17.158 38.662 39.438 38.662 12.705 0 22.486-5.974 26.23-10.188 1.75-1.97 1.186-3.162-.363-4.58-1.355-1.254-2.84-2.734-4.186-3.982-1.24-1.145-2.19-1.094-3.824.128-4.725 3.513-10.628 6.03-18.36 6.03-14.712 0-25.344-10.604-26.08-22.942h53.894c1.65 0 3.13-1.294 3.31-3.128.19-1.29.373-3.682.373-4.976 0-19.167-14.683-33.44-33.78-33.68zM356.66 83.573c.732-10.458 9.916-20.25 22.242-20.25 11.237 0 21.79 9.57 22.333 20.25H356.66zm23.02-31.486c.164 0 .325.01.488.01.15 0 .3-.01.452-.01h-.94zm90.487 68.17l-5.318-5.273c-.41-.415-1.734-.892-3.09.277 0 0-2.718 2.503-7.33 2.503-3.183 0-5.77-1.157-7.665-3.113-1.877-1.965-3.07-4.792-3.126-8.317-.003-.193-.04-.376-.095-.554V62.722h19.466c1.958 0 3.373-1.595 3.373-3.376v-3.9c0-1.958-1.415-3.375-3.372-3.375h-19.465V32.467c0-1.776-1.417-3.374-3.197-3.374l-5.674.61c-1.773.236-3.376 1.6-3.376 3.374v18.996h-9.234c-1.952 0-3.37 1.417-3.37 3.376v3.897c0 1.78 1.418 3.376 3.37 3.376h9.234v44.21h.08c.146 5.426 2.178 9.578 3.41 11.628 1.112 1.757 3.522 5.18 7.38 7.917v.005c.056.04.128.086.198.13 1.795 1.053 5.773 2.82 11.94 2.814h.043c6.41 0 11.86-2.356 15.78-6.118.41-.394.65-.948.66-1.52.007-.572-.225-1.13-.624-1.534zM220.422 52.18h-6.92l-.814.016c-1.547 0-2.58.918-3.09 1.954L185.4 111.546l-23.775-57.53c-.513-1.036-1.544-1.954-3.09-1.954l-.816-.015h-7.11c-2.667 0-3.73 1.778-2.667 4.084l1.267 2.903 28.99 66.736c.642 1.55 1.902 3.37 3.67 3.37h7.064c1.77 0 3.03-1.82 3.677-3.37l29.21-66.6 1.267-2.903c1.066-2.307 0-4.085-2.664-4.085zm90.392 77.248h-25.816c-6.63 0-9.856-4.634-9.856-9.116 0-7.174 7.887-10.76 7.887-10.76s8.437 5.21 18.29 5.21c18.956 0 31.82-14.885 31.82-31.202 0-12.198-7.377-19.292-7.377-19.292l9.754-2.77c1.244-.18 1.97-1.792 1.97-3.05V55.41c0-1.965-1.433-3.404-3.406-3.404h-34.025c-18.642 0-30.298 14.883-30.298 31.553 0 10.577 5.74 17.93 5.74 17.93s-12.01 6.98-12.01 20.607c0 11.118 8.424 15.78 13.087 17.034v.54c-1.8 1.07-10.396 5.915-10.396 16.67 0 11.833 10.395 24.735 34.415 24.735 21.69 0 37.105-14.16 37.105-29.038.003-15.59-11.827-22.61-26.886-22.61zM301.32 63.6c10.776 0 19.507 8.744 19.507 19.52 0 10.784-8.73 19.51-19.507 19.51-10.76 0-19.49-8.727-19.49-19.51 0-10.777 8.73-19.52 19.49-19.52zm-.9 105.832c-12.197 0-21.516-6.275-21.516-14.877 0-10.586 12.015-13.813 12.015-13.813h19.893c12.543 0 13.622 9.323 13.622 11.656 0 10.398-12.19 17.034-24.017 17.034zm-57.39-145.88c-4.124 0-7.473 3.346-7.473 7.638 0 4.133 3.348 7.482 7.474 7.482 4.306 0 7.646-3.35 7.646-7.482 0-4.293-3.34-7.637-7.644-7.637z"/></symbol></svg>