<?xml version="1.0" standalone="no"?>
<!DOCTYPE svg PUBLIC "-//W3C//DTD SVG 20010904//EN"
 "http://www.w3.org/TR/2001/REC-SVG-20010904/DTD/svg10.dtd">
<svg version="1.0" xmlns="http://www.w3.org/2000/svg"
 width="94.000000pt" height="99.000000pt" viewBox="0 0 94.000000 99.000000"
 preserveAspectRatio="xMidYMid meet">
<metadata>
Created by potrace 1.11, written by Peter Selinger 2001-2013
</metadata>
<g transform="translate(0.000000,99.000000) scale(0.100000,-0.100000)"
fill="#000000" stroke="none">
<path d="M49 976 c-13 -6 -30 -23 -38 -37 -14 -25 -8 -73 45 -334 2 -11 7 -33
9 -50 3 -16 13 -65 22 -109 8 -43 16 -104 17 -135 1 -48 -1 -56 -17 -53 -18 3
-31 -21 -40 -74 -3 -16 -10 -49 -15 -74 -6 -25 -13 -57 -16 -72 l-5 -28 249 0
248 0 -8 32 c-5 18 -12 47 -14 63 -3 17 -8 41 -11 55 -3 14 -8 36 -11 50 -8
43 -12 49 -34 45 -20 -4 -21 0 -19 58 1 34 7 78 12 98 8 33 12 35 50 38 24 1
45 9 53 19 11 15 30 96 26 113 0 3 5 30 13 60 29 107 16 149 -45 149 -20 0
-21 3 -14 43 13 70 9 107 -15 130 -20 21 -30 22 -220 23 -134 1 -207 -2 -222
-10z m475 -356 c-30 -143 -29 -141 -56 -136 -30 4 -28 31 17 243 6 24 34 35
52 19 8 -8 5 -40 -13 -126z"/>
<path d="M860 522 c-35 -5 -40 -12 -47 -68 -3 -27 -7 -51 -10 -54 -3 -3 -44
-5 -91 -5 -99 0 -96 5 -81 -101 5 -32 12 -88 15 -124 4 -36 8 -72 10 -80 1 -8
3 -30 3 -47 l1 -33 100 0 100 0 1 33 c0 17 2 41 4 52 4 20 13 95 20 165 2 19
6 58 9 86 5 44 3 51 -12 51 -39 0 -41 3 -36 39 6 48 8 50 52 58 25 4 39 11 39
21 0 15 -12 16 -77 7z"/>
</g>
</svg>
