<?xml version="1.0" encoding="utf-8"?>
<!-- Generated by IcoMoon.io -->
<!DOCTYPE svg PUBLIC "-//W3C//DTD SVG 1.1//EN" "http://www.w3.org/Graphics/SVG/1.1/DTD/svg11.dtd">
<svg version="1.1" xmlns="http://www.w3.org/2000/svg" xmlns:xlink="http://www.w3.org/1999/xlink" width="32" height="32" viewBox="0 0 32 32">
<path d="M26.625 0h-21.25c-2.956 0-5.375 2.419-5.375 5.375v21.25c0 2.956 2.419 5.375 5.375 5.375h21.25c2.956 0 5.375-2.419 5.375-5.375v-21.25c0-2.956-2.419-5.375-5.375-5.375zM12 26h-4v-14h4v14zM10 10c-1.105 0-2-0.895-2-2s0.895-2 2-2 2 0.895 2 2-0.895 2-2 2zM26 26h-4v-8c0-1.105-0.895-2-2-2s-2 0.895-2 2v8h-4v-14h4v2.483c0.825-1.133 2.086-2.483 3.5-2.483 2.485 0 4.5 2.239 4.5 5v9z" fill="#444444"></path>
</svg>
